<?xml version="1.0" standalone="no"?>
<!DOCTYPE svg PUBLIC "-//W3C//DTD SVG 20010904//EN"
 "http://www.w3.org/TR/2001/REC-SVG-20010904/DTD/svg10.dtd">
<svg version="1.0" xmlns="http://www.w3.org/2000/svg"
 width="657.000000pt" height="657.000000pt" viewBox="0 0 657.000000 657.000000"
 preserveAspectRatio="xMidYMid meet">
<metadata>
Created by potrace 1.14, written by Peter Selinger 2001-2017
</metadata>
<g transform="translate(0.000000,657.000000) scale(0.100000,-0.100000)"
fill="#000000" stroke="none">
<path d="M1390 6564 c-14 -3 -50 -13 -80 -22 -30 -9 -57 -16 -60 -17 -7 0
-123 -59 -135 -68 -74 -55 -137 -113 -181 -166 -53 -63 -130 -201 -139 -249
-2 -12 -6 -26 -9 -31 -12 -19 -21 -121 -20 -226 2 -94 7 -124 33 -203 17 -51
40 -105 51 -119 11 -14 20 -30 20 -35 0 -26 183 -228 207 -228 4 0 14 -6 22
-14 29 -25 105 -63 171 -84 73 -24 207 -50 233 -46 9 1 17 -1 18 -4 0 -4 2
-110 3 -237 1 -126 5 -239 9 -250 3 -11 9 -41 12 -68 20 -178 139 -475 267
-666 64 -96 156 -211 168 -211 6 0 10 -6 10 -13 0 -7 13 -23 30 -37 17 -14 30
-28 30 -31 0 -4 -24 -7 -52 -7 -53 0 -185 -15 -195 -22 -7 -5 -61 -2 -88 4
-73 16 -96 18 -190 18 -114 0 -165 -6 -232 -27 -79 -26 -187 -84 -252 -136
-63 -52 -161 -165 -161 -186 0 -7 -4 -13 -9 -13 -16 0 -79 -162 -97 -250 -12
-58 -10 -238 3 -295 8 -33 16 -68 18 -77 14 -65 88 -187 166 -272 101 -110
258 -207 374 -231 92 -18 90 -18 131 16 21 19 44 39 49 45 37 41 270 167 329
178 14 3 29 7 33 9 33 20 264 29 355 14 212 -34 430 -171 586 -367 73 -91 82
-104 131 -193 54 -98 125 -295 137 -382 2 -16 6 -37 9 -44 12 -31 20 -151 20
-286 0 -183 -5 -224 -50 -425 -11 -50 -62 -185 -92 -245 -42 -84 -139 -230
-199 -301 -24 -28 -44 -54 -44 -58 0 -3 315 -6 700 -6 385 0 700 3 700 6 0 3
-25 31 -55 62 -148 152 -285 433 -321 657 -3 22 -8 43 -10 46 -23 38 -22 492
1 530 3 3 7 21 9 40 3 19 12 59 21 89 9 30 18 62 20 71 21 94 158 359 218 425
7 7 30 34 51 61 46 56 156 153 218 192 103 65 204 103 338 128 40 7 254 11
265 5 5 -3 21 -7 35 -9 33 -4 51 -8 75 -18 138 -54 198 -81 243 -110 l53 -36
72 37 c100 51 147 85 217 157 112 114 182 246 208 392 8 44 8 213 0 265 -31
204 -176 414 -364 526 -44 26 -156 73 -189 80 -11 2 -33 7 -50 11 -52 12 -257
7 -305 -7 -25 -8 -47 -14 -50 -15 -3 0 -21 -6 -40 -13 -19 -6 -46 -14 -60 -16
-14 -3 -25 -5 -25 -6 0 -7 -182 -20 -188 -13 -3 2 15 26 40 51 37 39 81 91
171 207 5 6 30 45 56 89 97 160 182 367 212 519 2 10 6 27 9 37 3 10 7 27 9
37 14 72 19 115 22 163 1 30 3 57 4 60 3 7 1 172 -3 257 -2 40 0 78 4 85 5 7
23 14 41 14 59 3 160 25 225 49 56 21 150 70 163 85 3 3 25 20 49 39 72 56
169 175 198 241 3 8 14 33 23 55 16 35 25 64 47 150 13 49 10 242 -4 295 -8
30 -16 62 -18 71 -3 14 -21 60 -48 122 -6 15 -15 27 -19 27 -5 0 -8 6 -8 13 0
23 -108 148 -174 201 -74 58 -191 120 -275 144 -39 11 -98 16 -191 16 -136 0
-185 -5 -224 -26 -11 -6 -23 -11 -26 -10 -11 4 -77 -23 -124 -50 -91 -54 -195
-149 -265 -243 -19 -25 -37 -42 -40 -37 -3 5 -51 39 -106 75 -138 90 -356 194
-485 230 -48 14 -228 51 -270 56 -56 7 -404 8 -445 1 -27 -4 -70 -11 -95 -14
-25 -3 -60 -10 -78 -15 -18 -5 -36 -10 -40 -11 -36 -4 -149 -41 -207 -66 -22
-10 -42 -18 -45 -18 -24 -4 -237 -119 -314 -171 -54 -36 -101 -65 -106 -65 -4
0 -19 17 -32 38 -78 116 -289 275 -395 297 -10 2 -31 9 -48 15 -31 12 -270 23
-315 14z m1790 -2023 c0 -5 -14 -14 -30 -21 -38 -16 -92 -81 -112 -135 -18
-49 -16 -117 5 -168 9 -20 16 -39 17 -42 2 -14 71 -77 104 -95 59 -32 165 -32
230 1 119 59 171 202 117 324 -23 52 -76 115 -97 115 -6 0 -17 7 -24 15 -10
12 -7 13 22 4 18 -5 47 -12 63 -14 17 -3 76 -28 132 -55 84 -41 116 -65 186
-133 122 -119 180 -215 215 -358 26 -102 22 -310 -6 -390 -42 -119 -104 -225
-179 -305 -45 -49 -126 -114 -141 -114 -6 0 -12 -3 -14 -8 -10 -23 -249 -109
-269 -96 -4 2 -10 1 -13 -4 -3 -5 -54 -7 -113 -6 -103 3 -132 6 -173 19 -10 3
-28 8 -39 10 -43 8 -148 60 -210 103 -72 51 -135 113 -177 175 -16 23 -31 44
-35 47 -13 12 -68 140 -84 195 -37 126 -21 361 34 487 52 122 176 267 291 340
56 36 200 102 207 94 2 -2 23 2 46 10 23 7 43 13 45 13 1 1 2 -3 2 -8z"/>
<path d="M2015 2038 c-173 -23 -321 -117 -457 -288 -74 -93 -171 -288 -182
-366 -2 -11 -6 -25 -9 -31 -19 -31 -30 -145 -29 -308 1 -209 8 -272 43 -385
35 -111 122 -290 164 -337 57 -63 155 -157 189 -180 22 -15 46 -33 53 -39 14
-14 102 -49 163 -65 46 -13 207 -20 225 -10 6 3 15 6 20 6 30 3 92 19 103 28
6 5 12 7 12 3 0 -3 23 8 50 24 28 17 53 30 56 30 3 0 11 6 19 12 7 7 33 28 56
47 110 86 261 319 288 443 1 4 8 26 16 48 8 22 12 40 10 40 -3 0 -1 10 4 23
28 74 44 314 28 432 -16 122 -21 145 -43 223 -24 84 -87 234 -110 262 -6 8
-19 29 -27 45 -9 17 -34 50 -56 75 -22 25 -41 48 -41 51 -1 18 -150 125 -223
159 -79 38 -96 43 -182 56 -70 10 -79 11 -140 2z"/>
<path d="M4669 2034 c-30 -7 -54 -12 -54 -12 0 6 -97 -33 -150 -61 -83 -43
-212 -165 -270 -256 -74 -115 -147 -282 -160 -365 -3 -14 -6 -34 -9 -46 -27
-126 -28 -375 -3 -515 10 -53 49 -184 59 -196 6 -7 8 -13 4 -13 -12 0 105
-214 142 -260 121 -148 260 -242 409 -276 52 -12 198 -9 248 4 28 7 57 15 66
17 97 21 293 185 376 315 35 54 95 166 99 185 2 6 12 34 22 63 11 28 18 52 16
52 -3 0 0 8 5 19 10 18 15 41 30 132 9 55 7 431 -2 446 -4 5 -9 29 -12 52 -3
23 -10 51 -15 62 -6 10 -9 19 -6 19 4 0 -6 30 -33 95 -38 91 -114 224 -155
273 -112 132 -263 234 -381 258 -11 2 -33 7 -50 10 -52 11 -119 11 -176 -2z"/>
</g>
</svg>
